<?xml version="1.0" standalone="no"?><svg xmlns="http://www.w3.org/2000/svg" viewBox="0 0 1440 320"><path fill="#273036" fill-opacity="1" d="M0,64L24,69.3C48,75,96,85,144,96C192,107,240,117,288,106.7C336,96,384,64,432,90.7C480,117,528,203,576,229.3C624,256,672,224,720,197.3C768,171,816,149,864,122.7C912,96,960,64,1008,85.3C1056,107,1104,181,1152,213.3C1200,245,1248,235,1296,229.3C1344,224,1392,224,1416,224L1440,224L1440,320L1416,320C1392,320,1344,320,1296,320C1248,320,1200,320,1152,320C1104,320,1056,320,1008,320C960,320,912,320,864,320C816,320,768,320,720,320C672,320,624,320,576,320C528,320,480,320,432,320C384,320,336,320,288,320C240,320,192,320,144,320C96,320,48,320,24,320L0,320Z"></path></svg>